<?xml version="1.0" encoding="utf-8"?>
<!-- Generator: Adobe Illustrator 16.0.0, SVG Export Plug-In . SVG Version: 6.00 Build 0)  -->
<!DOCTYPE svg PUBLIC "-//W3C//DTD SVG 1.1//EN" "http://www.w3.org/Graphics/SVG/1.1/DTD/svg11.dtd">
<svg version="1.1" id="Layer_1" xmlns="http://www.w3.org/2000/svg" xmlns:xlink="http://www.w3.org/1999/xlink" x="0px" y="0px"
	 width="1000px" height="1000px" viewBox="-194 -104 1000 1000" enable-background="new -194 -104 1000 1000" xml:space="preserve">
<path d="M768.211-104H-156.23C-177.085-104-194-87.083-194-66.231V858.23c0,20.852,16.915,37.77,37.77,37.77H768.23
	c20.854,0,37.77-16.918,37.77-37.77V-66.231C805.982-87.083,789.085-104,768.211-104z M660.688-1.094
	c15.316,9.183,30.21,18.117,45.437,27.248c0,7.42,0,15.05,0,22.664c0,23.188-0.191,46.375,0.139,69.563
	c0.07,5.574-1.446,9.982-5.123,13.832c-13.081,13.727-24.649,28.674-35.779,44.004c-1.115,1.533-2.579,2.788-4.673,5.001
	C660.688,119.808,660.688,59.601,660.688-1.094z M207.903,0.353c9.493,4.163,18.954,8.361,28.465,12.491
	c15.89,6.881,31.793,13.763,47.733,20.523c6.744,2.855,8.414,4.023,13.031,10.678c-2.928,5.138-7.838,8.675-11.844,12.997
	c-3.888,4.18-8.066,8.083-12.684,12.664c-21.811-22.856-43.622-45.695-65.416-68.551C207.413,0.876,207.66,0.614,207.903,0.353z
	 M-94.35-0.205c7.855-1.533,209.486-2.125,273.302-0.801c9.927,10.609,20.293,21.757,30.761,32.82
	c5.073,5.35,10.368,10.471,15.473,15.785c13.778,14.32,27.524,28.674,41.235,43.063c1.985,2.09,3.73,4.425,5.939,7.073
	c1.742-1.654,3.102-2.875,4.394-4.198c17.785-18.431,35.569-36.845,53.305-55.329c9.984-10.399,19.878-20.886,29.773-31.393
	c2.215-2.352,4.218-4.912,6.532-7.647c91.635,0,183.48,0,275.808,0c0,2.717,0,5.122,0,7.526c0,65.224-0.05,130.449,0.104,195.673
	c0.018,5.156-1.218,9.582-3.885,13.709c-15.171,23.554-27.228,48.76-39.073,74.039c-5.54,11.811-9.634,24.286-14.497,36.41
	c-1.393,3.485-3.028,6.899-4.913,10.14c-1.514,2.578-3.517,4.65-7.122,4.617c-5.139-0.035-6.726-0.767-8.59-5.609
	c-0.852-2.23-1.652-4.565-1.915-6.917c-0.786-7.229-1.099-14.528-1.933-21.757c-0.768-6.638-2.06-13.207-2.98-19.809
	c-0.697-5.052-1.255-10.14-1.742-15.208c-0.973-9.877-3.275-19.372-6.272-28.868c-3.812-12.071-12.073-18.692-23.799-19.546
	c-15.05-1.097-32.992,6.342-37.418,26.131c-2.28,10.191-0.802,19.756,1.393,29.406c5.386,23.711,14.063,46.358,22.807,68.988
	c8.066,20.887,15.694,41.932,23.656,62.871c3.607,9.478,7.422,18.868,11.357,28.205c6.359,15.087,23.504,20.452,37.944,17.16
	c2.333-0.541,4.65-1.15,6.916-1.898c8.973-2.945,12.666-10.732,15.522-18.502c4.424-11.969,7.699-24.354,11.674-36.497
	c6.46-19.738,13.062-39.423,19.664-59.109c0.489-1.446,1.412-2.753,2.805-5.365c0,53.446,0,105.465,0,157.502
	c-6.808,1.29-147.78,1.794-170.673,0.627c-2.804-6.638-1.723-13.763-2.682-20.627c-2.785-20.068-1.864-40.26-0.854-60.259
	c0.82-16.306,1.083-32.577,0.803-48.831c-0.212-13.152-0.56-26.428-2.858-39.493c-0.052-0.261-0.019-0.54-0.019-0.818
	c-0.61-11.9-0.747-23.85-1.985-35.677c-1.254-11.917-1.306-23.799-1.184-35.732c0.034-2.647,0.765-5.279,0.957-7.943
	c0.193-2.7,0.369-5.419,0.104-8.102c-0.346-3.709-1.099-7.404-1.723-11.358c10.05-5.923,19.72-11.654,29.423-17.316
	c16.22-9.494,32.768-18.431,48.013-29.545c4.722-3.449,8.468-7.561,10.572-12.996c1.849-4.773,1.797-9.808-1.062-13.99
	c-11.253-16.479-31.969-18.972-45.678-6.619c-4.232,3.815-8.655,7.42-12.662,11.445c-7.146,7.213-16.237,11.533-24.584,16.934
	c-7.195,4.668-14.877,8.57-22.472,12.892c-9.807-5.958-20.888-6.132-31.567-4.059c-9.061,1.759-18.081,9.512-16.811,20.696
	c0.313,2.7,0.398,5.505,0,8.169c-0.68,4.775-1.743,9.216-6.795,11.952c-7.088,3.814-13.677,8.553-20.607,12.646
	c-13.171,7.788-26.604,15.158-39.617,23.206c-12.628,7.804-25.955,13.85-40.209,17.839c-6.688,1.882-12.437,5.018-16.915,10.383
	c-4.617,5.523-6.097,11.272-3.865,18.606c3.169,10.434,9.456,17.125,19.563,20.731c4.528,1.62,8.989,1.428,13.501,0.313
	c6.826-1.689,13.084-4.635,18.761-8.833c12.354-9.128,24.634-18.361,37.161-27.229c9.635-6.829,19.615-13.188,29.442-19.79
	c3.325-2.229,7.021-2.474,10.868-2.509c4.32-0.053,7.059,1.708,8.866,5.662c1.693,3.711,3.119,7.387,3.119,11.532
	c-0.051,26.742,0.417,53.5-0.435,80.223c-0.294,9.147-0.246,18.449-1.515,27.507c-1.689,12.195-0.229,24.477-1.709,36.533
	c-1.741,14.128-0.801,28.205-1.01,42.297c-0.087,5.889,0.838,11.794,1.255,17.7c0.088,1.324,0.018,2.647,0.018,4.374
	c-15.192,0-30.067,0-45.451,0c0-45.54,0-91.009,0-137.958c-29.705,24.425-57.769,48.71-86.375,72.507
	c-28.309-23.833-56.687-47.717-84.979-71.531c-0.296,0.262-0.54,0.418-0.678,0.627c-0.142,0.209-0.277,0.47-0.277,0.713
	c-0.02,45.018-0.02,90.016-0.02,134.769c-0.436,0.453-0.591,0.696-0.819,0.838c-0.209,0.138-0.486,0.26-0.731,0.26
	c-93.026,0.019-186.055,0.019-279.796,0.019C-94.35,328.268-94.35,164.023-94.35-0.205z M340.946,409.274
	c1.17,8.623-1.045,15.539-9.897,20.018c-8.916,0-18.672,0-30.344,0c13.59-11.48,26.112-22.073,39.407-33.292
	c0.362,1.987,0.712,3.136,0.745,4.303C340.946,403.3,340.546,406.331,340.946,409.274z M86.985,803.389H-95.17V564.165h66.304
	v181.126H86.982v58.098H86.985z M192.242,803.389h-66.636V564.165h66.636V803.389z M205.585,395.878
	c12.875,10.802,25,20.992,37.003,31.062c0,22.055,0,43.849,0,66.043c-12.298,0-24.462,0-37.003,0
	C205.585,461.033,205.585,429.012,205.585,395.878z M387.024,805.097h-61.514l-97.052-240.932h74.159l54.339,151.388l54.337-151.388
	h72.785L387.024,805.097z M706.56,803.389H512.787V564.165h192.063v56.392H578.065v36.217h114.82v52.28h-114.82v37.927H706.56
	V803.389z M705.811,492.966c-14.823,0-29.686,0-45.362,0c0-3.207,0-5.906,0-8.606c0-61.322,0.05-122.645-0.104-183.965
	c-0.02-5.052,0.905-9.601,3.379-13.851c7.979-13.657,15.87-27.367,24.128-40.869c5.313-8.694,11.237-17.001,17.104-25.817
	C706.597,226.687,707.222,465.979,705.811,492.966z"/>
</svg>
